<mxfile host="app.diagrams.net" agent="Mozilla/5.0 (Windows NT 10.0; Win64; x64) AppleWebKit/537.36 (KHTML, like Gecko) Chrome/130.0.0.0 Safari/537.36" version="24.8.6">
  <diagram name="Trang-1" id="CurSSY_hultLrCkaN7S4">
    <mxGraphModel dx="1050" dy="565" grid="1" gridSize="10" guides="1" tooltips="1" connect="1" arrows="1" fold="1" page="1" pageScale="1" pageWidth="827" pageHeight="1169" math="0" shadow="0">
      <root>
        <mxCell id="0" />
        <mxCell id="1" parent="0" />
        <mxCell id="0MR0O88rkv1iI4UPMOrd-2" value="&lt;font style=&quot;font-size: 18px;&quot;&gt;bắt đầu&lt;/font&gt;&amp;nbsp;" style="ellipse;whiteSpace=wrap;html=1;" vertex="1" parent="1">
          <mxGeometry x="350" y="30" width="120" height="80" as="geometry" />
        </mxCell>
        <mxCell id="0MR0O88rkv1iI4UPMOrd-3" value="" style="endArrow=classic;html=1;rounded=0;" edge="1" parent="1">
          <mxGeometry width="50" height="50" relative="1" as="geometry">
            <mxPoint x="409.5" y="110" as="sourcePoint" />
            <mxPoint x="410" y="160" as="targetPoint" />
          </mxGeometry>
        </mxCell>
        <mxCell id="0MR0O88rkv1iI4UPMOrd-7" value="" style="edgeStyle=orthogonalEdgeStyle;rounded=0;orthogonalLoop=1;jettySize=auto;html=1;" edge="1" parent="1" source="0MR0O88rkv1iI4UPMOrd-5" target="0MR0O88rkv1iI4UPMOrd-6">
          <mxGeometry relative="1" as="geometry" />
        </mxCell>
        <mxCell id="0MR0O88rkv1iI4UPMOrd-5" value="&lt;font style=&quot;font-size: 14px;&quot;&gt;nhập vào hai số a,b&lt;/font&gt;" style="shape=parallelogram;perimeter=parallelogramPerimeter;whiteSpace=wrap;html=1;fixedSize=1;" vertex="1" parent="1">
          <mxGeometry x="330" y="160" width="160" height="100" as="geometry" />
        </mxCell>
        <mxCell id="0MR0O88rkv1iI4UPMOrd-9" value="" style="edgeStyle=orthogonalEdgeStyle;rounded=0;orthogonalLoop=1;jettySize=auto;html=1;" edge="1" parent="1" source="0MR0O88rkv1iI4UPMOrd-6" target="0MR0O88rkv1iI4UPMOrd-8">
          <mxGeometry relative="1" as="geometry" />
        </mxCell>
        <mxCell id="0MR0O88rkv1iI4UPMOrd-13" value="" style="edgeStyle=orthogonalEdgeStyle;rounded=0;orthogonalLoop=1;jettySize=auto;html=1;" edge="1" parent="1" source="0MR0O88rkv1iI4UPMOrd-6" target="0MR0O88rkv1iI4UPMOrd-12">
          <mxGeometry relative="1" as="geometry" />
        </mxCell>
        <mxCell id="0MR0O88rkv1iI4UPMOrd-6" value="a&amp;lt;b" style="rhombus;whiteSpace=wrap;html=1;" vertex="1" parent="1">
          <mxGeometry x="370" y="310" width="80" height="80" as="geometry" />
        </mxCell>
        <mxCell id="0MR0O88rkv1iI4UPMOrd-11" value="" style="edgeStyle=orthogonalEdgeStyle;rounded=0;orthogonalLoop=1;jettySize=auto;html=1;" edge="1" parent="1" source="0MR0O88rkv1iI4UPMOrd-8" target="0MR0O88rkv1iI4UPMOrd-10">
          <mxGeometry relative="1" as="geometry" />
        </mxCell>
        <mxCell id="0MR0O88rkv1iI4UPMOrd-8" value="đúng" style="rhombus;whiteSpace=wrap;html=1;" vertex="1" parent="1">
          <mxGeometry x="510" y="310" width="80" height="80" as="geometry" />
        </mxCell>
        <mxCell id="0MR0O88rkv1iI4UPMOrd-10" value="xuất ra a" style="whiteSpace=wrap;html=1;" vertex="1" parent="1">
          <mxGeometry x="490" y="440" width="120" height="60" as="geometry" />
        </mxCell>
        <mxCell id="0MR0O88rkv1iI4UPMOrd-15" value="" style="edgeStyle=orthogonalEdgeStyle;rounded=0;orthogonalLoop=1;jettySize=auto;html=1;entryX=0.5;entryY=0;entryDx=0;entryDy=0;" edge="1" parent="1" source="0MR0O88rkv1iI4UPMOrd-12" target="0MR0O88rkv1iI4UPMOrd-16">
          <mxGeometry relative="1" as="geometry">
            <mxPoint x="250" y="430" as="targetPoint" />
          </mxGeometry>
        </mxCell>
        <mxCell id="0MR0O88rkv1iI4UPMOrd-12" value="sai" style="rhombus;whiteSpace=wrap;html=1;" vertex="1" parent="1">
          <mxGeometry x="210" y="310" width="80" height="80" as="geometry" />
        </mxCell>
        <mxCell id="0MR0O88rkv1iI4UPMOrd-16" value="xuất ra b" style="whiteSpace=wrap;html=1;" vertex="1" parent="1">
          <mxGeometry x="190" y="440" width="120" height="60" as="geometry" />
        </mxCell>
        <mxCell id="0MR0O88rkv1iI4UPMOrd-18" value="&lt;font style=&quot;font-size: 18px;&quot;&gt;kết thúc&lt;/font&gt;" style="ellipse;whiteSpace=wrap;html=1;" vertex="1" parent="1">
          <mxGeometry x="350" y="550" width="120" height="80" as="geometry" />
        </mxCell>
        <mxCell id="0MR0O88rkv1iI4UPMOrd-19" value="" style="endArrow=classic;html=1;rounded=0;entryX=0;entryY=0.5;entryDx=0;entryDy=0;" edge="1" parent="1" target="0MR0O88rkv1iI4UPMOrd-18">
          <mxGeometry width="50" height="50" relative="1" as="geometry">
            <mxPoint x="250" y="500" as="sourcePoint" />
            <mxPoint x="250" y="600" as="targetPoint" />
            <Array as="points">
              <mxPoint x="250" y="590" />
            </Array>
          </mxGeometry>
        </mxCell>
        <mxCell id="0MR0O88rkv1iI4UPMOrd-20" value="" style="endArrow=classic;html=1;rounded=0;entryX=1;entryY=0.5;entryDx=0;entryDy=0;exitX=0.5;exitY=1;exitDx=0;exitDy=0;" edge="1" parent="1" source="0MR0O88rkv1iI4UPMOrd-10" target="0MR0O88rkv1iI4UPMOrd-18">
          <mxGeometry width="50" height="50" relative="1" as="geometry">
            <mxPoint x="570" y="500" as="sourcePoint" />
            <mxPoint x="480" y="590" as="targetPoint" />
            <Array as="points">
              <mxPoint x="550" y="590" />
            </Array>
          </mxGeometry>
        </mxCell>
      </root>
    </mxGraphModel>
  </diagram>
</mxfile>
